<?xml version="1.0" encoding="utf-8"?>
<!-- Generator: Adobe Illustrator 19.1.0, SVG Export Plug-In . SVG Version: 6.00 Build 0)  -->
<svg version="1.1" id="Layer_1" xmlns="http://www.w3.org/2000/svg" xmlns:xlink="http://www.w3.org/1999/xlink" x="0px" y="0px"
	 viewBox="0 0 100 100" style="enable-background:new 0 0 100 100;" xml:space="preserve">
<style type="text/css">
	.st0{fill:#FFFFFF;}
</style>
<g>
	<g>
		<path class="st0" d="M83,67.2c-4.5,0.3-10.4,4.8-16.1,7.4c-7,3.2-17.9,0.6-17.9,0.6c1.7-0.8,8.5-2.4,9.9-3
			c7.3-3.2,6.7-9.9,3.2-9.9c-4.6,0.1-7.3,1.2-16.5,2.5c-7,1-15.2,0.6-19.1,2.1C20.9,69,11.9,83.3,11.9,83.3l13.9,13.4
			c0,0,8.6-8.5,12.8-8.5c9.5,0,9.9-0.1,18.8-0.6c3.7-0.2,4.5-0.3,6.7-1.1c11.5-3.9,23.8-14.2,24-15.4C88.5,68.3,85.4,67,83,67.2
			L83,67.2z"/>
	</g>
	<g>
		<path class="st0" d="M78.4,20.3c-0.2-0.2-0.5-0.3-0.9-0.3H61c2.3,0,4.3-0.8,5.9-2.4c1.6-1.6,2.4-3.6,2.4-5.9S68.6,7.3,67,5.7
			c-1.6-1.6-3.6-2.4-5.9-2.4c-2.7,0-4.8,1-6.3,2.9L50,12.3l-4.8-6.2c-1.5-1.9-3.6-2.9-6.3-2.9c-2.3,0-4.3,0.8-5.9,2.4
			c-1.6,1.6-2.4,3.6-2.4,5.9s0.8,4.3,2.4,5.9c1.6,1.6,3.6,2.4,5.9,2.4H22.5c-0.3,0-0.6,0.1-0.9,0.3c-0.2,0.2-0.3,0.5-0.3,0.9v12
			c0,0.3,0.1,0.6,0.3,0.9c0.2,0.2,0.5,0.3,0.9,0.3h3.6v15.5c0,1,0.3,1.8,1,2.6c0.7,0.7,1.5,1,2.6,1h40.7c1,0,1.8-0.3,2.6-1
			c0.7-0.7,1-1.5,1-2.6V34.3h3.6c0.3,0,0.6-0.1,0.9-0.3c0.2-0.2,0.3-0.5,0.3-0.9v-12C78.7,20.8,78.6,20.6,78.4,20.3L78.4,20.3z
			 M58.5,9.2C59.1,8.4,60,8,61,8c1,0,1.8,0.3,2.6,1c0.7,0.7,1,1.5,1,2.6s-0.3,1.8-1,2.6c-0.7,0.7-1.5,1-2.6,1h-7.3L58.5,9.2z
			 M38.9,15.2c-1,0-1.8-0.3-2.6-1c-0.7-0.7-1-1.5-1-2.6s0.3-1.8,1-2.6c0.7-0.7,1.5-1,2.6-1c1.1,0,1.9,0.4,2.6,1.2l4.7,6H38.9z
			 M56,27.2v19.6c0,0.6-0.2,1.1-0.7,1.4c-0.5,0.3-1,0.5-1.7,0.5h-7.2c-0.7,0-1.3-0.2-1.7-0.5c-0.5-0.3-0.7-0.8-0.7-1.4V20h12V27.2z"
			/>
	</g>
</g>
</svg>
