<?xml version="1.0" encoding="utf-8"?>
<!-- Generator: Adobe Illustrator 19.1.0, SVG Export Plug-In . SVG Version: 6.00 Build 0)  -->
<svg version="1.1" id="Layer_1" xmlns="http://www.w3.org/2000/svg" xmlns:xlink="http://www.w3.org/1999/xlink" x="0px" y="0px"
	 viewBox="0 0 100 100" style="enable-background:new 0 0 100 100;" xml:space="preserve">
<style type="text/css">
	.st0{fill:#FFFFFF;}
</style>
<path class="st0" d="M74.2,61.8L30,8.9c-0.7-0.7-2-1.3-2.6-0.7c-1.3,0.7-2,1.3-2,2.6v68.8c0,1.3,0.7,2,2,2.6H28c0.7,0,1.3-0.7,2-1.3
	l11.9-15.9l7.9,23.1c1.3,3.3,4.6,4.6,7.3,3.3c3.3-1.3,4.6-4.6,3.3-7.3l-7.9-23.1l18.5,3.3c1.3,0,2,0,2.6-1.3
	C74.9,63.8,74.9,62.4,74.2,61.8L74.2,61.8z"/>
</svg>
