<?xml version="1.0" encoding="utf-8"?>
<!-- Generator: Adobe Illustrator 19.1.0, SVG Export Plug-In . SVG Version: 6.00 Build 0)  -->
<svg version="1.1" id="Layer_1" xmlns="http://www.w3.org/2000/svg" xmlns:xlink="http://www.w3.org/1999/xlink" x="0px" y="0px"
	 viewBox="0 0 100 100" style="enable-background:new 0 0 100 100;" xml:space="preserve">
<style type="text/css">
	.st0{fill:#FFFFFF;}
	.st1{fill:#313540;}
</style>
<g>
	<g>
		<path class="st0" d="M86.9,28.7c-3.8-4.7-9-8.4-15.5-11.1c-6.5-2.7-13.6-4.1-21.3-4.1c-5.7,0-11.3,0.8-16.5,2.4s-9.8,3.8-13.5,6.5
			s-6.8,6-9,9.7c-2.3,3.8-3.4,7.7-3.4,11.8c0,4.7,1.5,9.2,4.3,13.3s6.8,7.6,11.7,10.4c-0.4,1.2-0.7,2.5-1.2,3.6
			c-0.5,1.2-0.9,2-1.3,2.8c-0.4,0.7-0.9,1.5-1.5,2.4c-0.7,0.9-1.2,1.5-1.5,1.9c-0.4,0.4-0.9,0.9-1.6,1.8c-0.7,0.9-1.2,1.4-1.5,1.6
			c0,0-0.1,0.1-0.4,0.4c-0.2,0.3-0.4,0.4-0.4,0.4L14,83c-0.1,0.2-0.2,0.4-0.2,0.4c0,0.1,0,0.2-0.1,0.5c-0.1,0.2-0.1,0.4,0,0.6v0.1
			c0.1,0.6,0.4,1,0.8,1.4c0.4,0.4,0.9,0.5,1.5,0.4c2-0.2,3.9-0.6,5.4-1c8.3-2.1,15.6-6,21.8-11.5c2.4,0.3,4.7,0.4,6.8,0.4
			c7.7,0,14.8-1.4,21.3-4.1c6.6-2.7,11.6-6.4,15.4-11.1c3.8-4.7,5.7-9.8,5.7-15.3C92.6,38.4,90.7,33.3,86.9,28.7L86.9,28.7z"/>
	</g>
	<g>
		<path class="st1" d="M54.2,35.4h-9.1c-1.2,0-2.3,0.4-3.2,1.3c-0.9,0.9-1.3,2-1.3,3.3V49c0,1.2,0.4,2.3,1.3,3.2
			c0.9,0.9,2,1.3,3.2,1.3h9.1c1.2,0,2.3-0.4,3.2-1.3c0.9-0.9,1.3-2,1.3-3.2v-9.1c0-1.2-0.4-2.3-1.3-3.2
			C56.6,35.8,55.5,35.4,54.2,35.4L54.2,35.4z"/>
		<path class="st1" d="M30,35.4h-9.1c-1.2,0-2.3,0.4-3.2,1.3c-0.9,0.9-1.4,2-1.4,3.3V49c0,1.2,0.4,2.3,1.3,3.2
			c0.9,0.9,2,1.3,3.2,1.3h9.1c1.2,0,2.3-0.4,3.2-1.3c0.9-0.9,1.4-2,1.4-3.2v-9.1c0-1.3-0.4-2.4-1.3-3.3S31.2,35.4,30,35.4L30,35.4z"
			/>
		<path class="st1" d="M81.7,36.7c-0.9-0.9-1.9-1.3-3.2-1.3h-9.1c-1.2,0-2.3,0.4-3.2,1.3s-1.3,2-1.3,3.2V49c0,1.2,0.4,2.3,1.3,3.2
			s2,1.3,3.2,1.3h9.1c1.2,0,2.3-0.4,3.2-1.3s1.3-2,1.3-3.2v-9C83.1,38.6,82.7,37.5,81.7,36.7L81.7,36.7z"/>
	</g>
</g>
</svg>
