<?xml version="1.0" encoding="utf-8"?>
<!-- Generator: Adobe Illustrator 19.2.0, SVG Export Plug-In . SVG Version: 6.00 Build 0)  -->
<svg version="1.1" id="Layer_4" xmlns="http://www.w3.org/2000/svg" xmlns:xlink="http://www.w3.org/1999/xlink" x="0px" y="0px"
	 viewBox="0 0 90 125" style="enable-background:new 0 0 90 125;" xml:space="preserve">
<style type="text/css">
	.st0{fill:none;}
	.st1{fill:none;stroke:#313540;stroke-width:0.5;stroke-linejoin:round;}
	.st2{fill:none;stroke:#313540;stroke-width:2;stroke-miterlimit:10;}
	.st3{fill:url(#SVGID_1_);}
	.st4{fill:#313540;}
</style>
<pattern  x="-26.1" y="145" width="72" height="72" patternUnits="userSpaceOnUse" id="Diagonal_Lines" viewBox="78.2 -150.2 72 72" style="overflow:visible;">
	<g>
		<rect x="78.2" y="-150.2" class="st0" width="72" height="72"/>
		<rect x="78.2" y="-150.2" class="st0" width="72" height="72"/>
		<line class="st1" x1="144.2" y1="-162.2" x2="162.2" y2="-144.2"/>
		<line class="st1" x1="144.2" y1="-168.2" x2="168.2" y2="-144.2"/>
		<line class="st1" x1="144.2" y1="-174.2" x2="174.2" y2="-144.2"/>
		<line class="st1" x1="144.2" y1="-180.2" x2="180.2" y2="-144.2"/>
		<line class="st1" x1="144.2" y1="-186.2" x2="186.2" y2="-144.2"/>
		<line class="st1" x1="144.2" y1="-192.2" x2="192.2" y2="-144.2"/>
		<line class="st1" x1="144.2" y1="-198.2" x2="198.2" y2="-144.2"/>
		<line class="st1" x1="144.2" y1="-204.2" x2="204.2" y2="-144.2"/>
		<line class="st1" x1="144.2" y1="-210.2" x2="210.2" y2="-144.2"/>
		<line class="st1" x1="144.2" y1="-216.2" x2="216.2" y2="-144.2"/>
		<line class="st1" x1="144.2" y1="-222.2" x2="222.2" y2="-144.2"/>
		<line class="st1" x1="144.2" y1="-228.2" x2="228.2" y2="-144.2"/>
		<line class="st1" x1="150.2" y1="-228.2" x2="228.2" y2="-150.2"/>
		<line class="st1" x1="72.2" y1="-162.2" x2="90.2" y2="-144.2"/>
		<line class="st1" x1="72.2" y1="-168.2" x2="96.2" y2="-144.2"/>
		<line class="st1" x1="72.2" y1="-174.2" x2="102.2" y2="-144.2"/>
		<line class="st1" x1="72.2" y1="-180.2" x2="108.2" y2="-144.2"/>
		<line class="st1" x1="72.2" y1="-186.2" x2="114.2" y2="-144.2"/>
		<line class="st1" x1="72.2" y1="-192.2" x2="120.2" y2="-144.2"/>
		<line class="st1" x1="72.2" y1="-198.2" x2="126.2" y2="-144.2"/>
		<line class="st1" x1="72.2" y1="-204.2" x2="132.2" y2="-144.2"/>
		<line class="st1" x1="72.2" y1="-210.2" x2="138.2" y2="-144.2"/>
		<line class="st1" x1="72.2" y1="-216.2" x2="144.2" y2="-144.2"/>
		<line class="st1" x1="72.2" y1="-222.2" x2="150.2" y2="-144.2"/>
		<line class="st1" x1="72.2" y1="-228.2" x2="156.2" y2="-144.2"/>
		<line class="st1" x1="78.2" y1="-228.2" x2="156.2" y2="-150.2"/>
		<line class="st1" x1="0.2" y1="-222.2" x2="78.2" y2="-144.2"/>
		<line class="st1" x1="0.2" y1="-228.2" x2="84.2" y2="-144.2"/>
		<line class="st1" x1="6.2" y1="-228.2" x2="84.2" y2="-150.2"/>
		<line class="st1" x1="144.2" y1="-90.2" x2="162.2" y2="-72.2"/>
		<line class="st1" x1="144.2" y1="-96.2" x2="168.2" y2="-72.2"/>
		<line class="st1" x1="144.2" y1="-102.2" x2="174.2" y2="-72.2"/>
		<line class="st1" x1="144.2" y1="-108.2" x2="180.2" y2="-72.2"/>
		<line class="st1" x1="144.2" y1="-114.2" x2="186.2" y2="-72.2"/>
		<line class="st1" x1="144.2" y1="-120.2" x2="192.2" y2="-72.2"/>
		<line class="st1" x1="144.2" y1="-126.2" x2="198.2" y2="-72.2"/>
		<line class="st1" x1="144.2" y1="-132.2" x2="204.2" y2="-72.2"/>
		<line class="st1" x1="144.2" y1="-138.2" x2="210.2" y2="-72.2"/>
		<line class="st1" x1="144.2" y1="-144.2" x2="216.2" y2="-72.2"/>
		<line class="st1" x1="144.2" y1="-150.2" x2="222.2" y2="-72.2"/>
		<line class="st1" x1="144.2" y1="-156.2" x2="228.2" y2="-72.2"/>
		<line class="st1" x1="150.2" y1="-156.2" x2="228.2" y2="-78.2"/>
		<line class="st1" x1="72.2" y1="-90.2" x2="90.2" y2="-72.2"/>
		<line class="st1" x1="72.2" y1="-96.2" x2="96.2" y2="-72.2"/>
		<line class="st1" x1="72.2" y1="-102.2" x2="102.2" y2="-72.2"/>
		<line class="st1" x1="72.2" y1="-108.2" x2="108.2" y2="-72.2"/>
		<line class="st1" x1="72.2" y1="-114.2" x2="114.2" y2="-72.2"/>
		<line class="st1" x1="72.2" y1="-120.2" x2="120.2" y2="-72.2"/>
		<line class="st1" x1="72.2" y1="-126.2" x2="126.2" y2="-72.2"/>
		<line class="st1" x1="72.2" y1="-132.2" x2="132.2" y2="-72.2"/>
		<line class="st1" x1="72.2" y1="-138.2" x2="138.2" y2="-72.2"/>
		<line class="st1" x1="72.2" y1="-144.2" x2="144.2" y2="-72.2"/>
		<line class="st1" x1="72.2" y1="-150.2" x2="150.2" y2="-72.2"/>
		<line class="st1" x1="72.2" y1="-156.2" x2="156.2" y2="-72.2"/>
		<line class="st1" x1="78.2" y1="-156.2" x2="156.2" y2="-78.2"/>
		<line class="st1" x1="84.2" y1="-156.2" x2="156.2" y2="-84.2"/>
		<line class="st1" x1="90.2" y1="-156.2" x2="156.2" y2="-90.2"/>
		<line class="st1" x1="96.2" y1="-156.2" x2="156.2" y2="-96.2"/>
		<line class="st1" x1="102.2" y1="-156.2" x2="156.2" y2="-102.2"/>
		<line class="st1" x1="108.2" y1="-156.2" x2="156.2" y2="-108.2"/>
		<line class="st1" x1="114.2" y1="-156.2" x2="156.2" y2="-114.2"/>
		<line class="st1" x1="120.2" y1="-156.2" x2="156.2" y2="-120.2"/>
		<line class="st1" x1="126.2" y1="-156.2" x2="156.2" y2="-126.2"/>
		<line class="st1" x1="132.2" y1="-156.2" x2="156.2" y2="-132.2"/>
		<line class="st1" x1="138.2" y1="-156.2" x2="156.2" y2="-138.2"/>
		<line class="st1" x1="144.2" y1="-156.2" x2="156.2" y2="-144.2"/>
		<line class="st1" x1="0.2" y1="-150.2" x2="78.2" y2="-72.2"/>
		<line class="st1" x1="0.2" y1="-156.2" x2="84.2" y2="-72.2"/>
		<line class="st1" x1="6.2" y1="-156.2" x2="84.2" y2="-78.2"/>
		<line class="st1" x1="12.2" y1="-156.2" x2="84.2" y2="-84.2"/>
		<line class="st1" x1="18.2" y1="-156.2" x2="84.2" y2="-90.2"/>
		<line class="st1" x1="24.2" y1="-156.2" x2="84.2" y2="-96.2"/>
		<line class="st1" x1="30.2" y1="-156.2" x2="84.2" y2="-102.2"/>
		<line class="st1" x1="36.2" y1="-156.2" x2="84.2" y2="-108.2"/>
		<line class="st1" x1="42.2" y1="-156.2" x2="84.2" y2="-114.2"/>
		<line class="st1" x1="48.2" y1="-156.2" x2="84.2" y2="-120.2"/>
		<line class="st1" x1="54.2" y1="-156.2" x2="84.2" y2="-126.2"/>
		<line class="st1" x1="60.2" y1="-156.2" x2="84.2" y2="-132.2"/>
		<line class="st1" x1="66.2" y1="-156.2" x2="84.2" y2="-138.2"/>
		<line class="st1" x1="72.2" y1="-156.2" x2="84.2" y2="-144.2"/>
		<line class="st1" x1="144.2" y1="-78.2" x2="222.2" y2="-0.2"/>
		<line class="st1" x1="144.2" y1="-84.2" x2="228.2" y2="-0.2"/>
		<line class="st1" x1="150.2" y1="-84.2" x2="228.2" y2="-6.2"/>
		<line class="st1" x1="72.2" y1="-78.2" x2="150.2" y2="-0.2"/>
		<line class="st1" x1="72.2" y1="-84.2" x2="156.2" y2="-0.2"/>
		<line class="st1" x1="78.2" y1="-84.2" x2="156.2" y2="-6.2"/>
		<line class="st1" x1="84.2" y1="-84.2" x2="156.2" y2="-12.2"/>
		<line class="st1" x1="90.2" y1="-84.2" x2="156.2" y2="-18.2"/>
		<line class="st1" x1="96.2" y1="-84.2" x2="156.2" y2="-24.2"/>
		<line class="st1" x1="102.2" y1="-84.2" x2="156.2" y2="-30.2"/>
		<line class="st1" x1="108.2" y1="-84.2" x2="156.2" y2="-36.2"/>
		<line class="st1" x1="114.2" y1="-84.2" x2="156.2" y2="-42.2"/>
		<line class="st1" x1="120.2" y1="-84.2" x2="156.2" y2="-48.2"/>
		<line class="st1" x1="126.2" y1="-84.2" x2="156.2" y2="-54.2"/>
		<line class="st1" x1="132.2" y1="-84.2" x2="156.2" y2="-60.2"/>
		<line class="st1" x1="138.2" y1="-84.2" x2="156.2" y2="-66.2"/>
		<line class="st1" x1="144.2" y1="-84.2" x2="156.2" y2="-72.2"/>
		<line class="st1" x1="0.2" y1="-78.2" x2="78.2" y2="-0.2"/>
		<line class="st1" x1="0.2" y1="-84.2" x2="84.2" y2="-0.2"/>
		<line class="st1" x1="6.2" y1="-84.2" x2="84.2" y2="-6.2"/>
		<line class="st1" x1="12.2" y1="-84.2" x2="84.2" y2="-12.2"/>
		<line class="st1" x1="18.2" y1="-84.2" x2="84.2" y2="-18.2"/>
		<line class="st1" x1="24.2" y1="-84.2" x2="84.2" y2="-24.2"/>
		<line class="st1" x1="30.2" y1="-84.2" x2="84.2" y2="-30.2"/>
		<line class="st1" x1="36.2" y1="-84.2" x2="84.2" y2="-36.2"/>
		<line class="st1" x1="42.2" y1="-84.2" x2="84.2" y2="-42.2"/>
		<line class="st1" x1="48.2" y1="-84.2" x2="84.2" y2="-48.2"/>
		<line class="st1" x1="54.2" y1="-84.2" x2="84.2" y2="-54.2"/>
		<line class="st1" x1="60.2" y1="-84.2" x2="84.2" y2="-60.2"/>
		<line class="st1" x1="66.2" y1="-84.2" x2="84.2" y2="-66.2"/>
		<line class="st1" x1="72.2" y1="-84.2" x2="84.2" y2="-72.2"/>
	</g>
</pattern>
<title>mbta</title>
<g>
	<path class="st2" d="M5.2,101.5V50c0,0-2.4-33.6,39.5-33.6s39.7,30.8,39.7,30.8l-0.1,54.6C84.5,102.9,5.4,102.6,5.2,101.5z"/>
	<polyline class="st2" points="5.2,81.6 84.4,81.6 60.9,81.6 60.9,47.4 84.4,47.4 5.2,47.4 29.6,47.4 29.6,81.6 	"/>
	<rect x="30.9" y="28.8" class="st2" width="26.6" height="9.7"/>
	<circle class="st2" cx="24.9" cy="34.5" r="3.1"/>
	<circle class="st2" cx="63.3" cy="34.5" r="3.1"/>
	<path class="st2" d="M24.8,101.8c0,5.4-4.4,6.8-9.8,6.8s-9.8-1.4-9.8-6.8"/>
	<path class="st2" d="M84.3,101.8c0,5.4-4.4,6.8-9.8,6.8c-5.4,0-9.8-1.4-9.8-6.8"/>
	<pattern  id="SVGID_1_" xlink:href="#Diagonal_Lines" patternTransform="matrix(1 0 0 -1 -72.53 -16453.8535)">
	</pattern>
	<rect x="5.7" y="81.6" class="st3" width="79.1" height="20.2"/>
	<path class="st4" d="M35.7,35.3c0.2-1.2,0.6-2.4,1.1-3.5L36,31.9l1.5,3.3c0.2,0.2,0.5,0.2,0.7,0c0,0,0,0,0,0
		c0.6-0.8,1.1-1.6,1.6-2.4L39,32.8c0.3,0.9,0.5,1.9,1.1,2.6c0.2,0.1,0.4,0.1,0.6,0c0.8-0.4,1.5-1,2.1-1.7l-0.7,0.1l0.6,0.7
		c0.3,0.2,0.6,0.1,0.8-0.1c0.4-0.5,0.7-1.1,0.9-1.7l-0.8,0.1c0.3,0.8,0.6,1.6,1,2.4c0.1,0.3,0.6,0.1,0.8,0l0.6-0.5l-0.7,0.1l0.5,0.5
		c0.2,0.2,0.6,0.1,0.7-0.1c0,0,0-0.1,0.1-0.1l0.2-1.8L46,33.4c0.5,0.6,0.9,1.2,1.1,1.9c0.1,0.3,0.6,0.2,0.8,0
		c1.1-1.1,2.2-2.2,3.3-3.4h-0.8l1.1,3.4c0.1,0.3,0.6,0.1,0.8,0c0.6-0.6,1-1.3,1.3-2.1c0.2-0.4-0.7-0.4-0.8-0.1
		c-0.2,0.8-0.7,1.4-1.2,2h0.8l-1.1-3.4c-0.1-0.3-0.6-0.1-0.8,0c-1.1,1.2-2.1,2.3-3.3,3.4h0.8c-0.3-0.7-0.7-1.4-1.2-2
		c-0.2-0.2-0.6-0.1-0.7,0.1c0,0,0,0.1-0.1,0.1l-0.2,1.8l0.8-0.2L46,34.4c-0.2-0.1-0.5-0.1-0.7,0.1L44.7,35h0.8
		c-0.4-0.8-0.7-1.6-1-2.4c-0.1-0.3-0.7-0.2-0.8,0.1c-0.2,0.6-0.5,1.2-0.9,1.7l0.8-0.1l-0.6-0.7c-0.2-0.1-0.5-0.1-0.7,0.1
		c-1.4,1.3-1.8,0.4-2.3-1c-0.1-0.3-0.7-0.1-0.8,0.1c-0.4,0.8-0.9,1.6-1.5,2.3h0.8l-1.5-3.3c-0.1-0.3-0.7-0.2-0.8,0.1
		c-0.5,1.2-0.9,2.4-1.2,3.6C34.8,35.7,35.6,35.6,35.7,35.3L35.7,35.3L35.7,35.3z"/>
</g>
</svg>
