<?xml version="1.0" encoding="utf-8"?>
<!-- Generator: Adobe Illustrator 19.2.0, SVG Export Plug-In . SVG Version: 6.00 Build 0)  -->
<svg version="1.1" id="Layer_6" xmlns="http://www.w3.org/2000/svg" xmlns:xlink="http://www.w3.org/1999/xlink" x="0px" y="0px"
	 viewBox="0 0 153.4 204.6" style="enable-background:new 0 0 153.4 204.6;" xml:space="preserve">
<style type="text/css">
	.st0{fill:none;stroke:#313540;stroke-width:3;stroke-miterlimit:10;}
</style>
<title>palmtree</title>
<path class="st0" d="M72.2,58c0,0-22.4-25.6-47.8-11.6S1.6,88.6,1.6,88.6C22.3,67.4,45.9,57.5,72.2,58z"/>
<path class="st0" d="M73.2,68.4c0,0-33.8,4.4-36.2,33.2s22.3,42.4,22.3,42.4C53.2,115,58.2,89.9,73.2,68.4z"/>
<path class="st0" d="M143.5,11.7c0,0-26.8-21.1-49.1-2.7S79.6,54.6,79.6,54.6C96.1,30,117.6,16,143.5,11.7z"/>
<path class="st0" d="M150.7,105.1c0,0,8.3-33.1-17.6-45.9s-47.7,5.2-47.7,5.2C114.6,69.4,136.2,83.3,150.7,105.1z"/>
<path class="st0" d="M82.5,72.1c35.7,34.9,52.7,89.2,51,130H77C99,164.7,97.7,120.5,82.5,72.1z"/>
<path class="st0" d="M91.7,157.4c19-11.4,25.9-17,27.8-28.9"/>
<path class="st0" d="M93.6,130.7c12.9-7.1,13.7-12.4,15.9-23.3"/>
<path class="st0" d="M83.5,189.3c19.4-6,43.1-20.2,44.9-33.5"/>
</svg>
