<?xml version="1.0" encoding="utf-8"?>
<!-- Generator: Adobe Illustrator 19.1.0, SVG Export Plug-In . SVG Version: 6.00 Build 0)  -->
<svg version="1.1" id="Layer_1" xmlns="http://www.w3.org/2000/svg" xmlns:xlink="http://www.w3.org/1999/xlink" x="0px" y="0px"
	 viewBox="0 0 100 100" style="enable-background:new 0 0 100 100;" xml:space="preserve">
<style type="text/css">
	.st0{fill:#FFFFFF;}
</style>
<g>
	<path class="st0" d="M22.9,70.6h-7.7c-0.4,0-0.7,0.1-0.9,0.4s-0.4,0.6-0.4,0.9v7.7c0,0.4,0.1,0.7,0.4,0.9c0.2,0.2,0.6,0.4,0.9,0.4
		h7.7c0.4,0,0.7-0.1,0.9-0.4s0.4-0.6,0.4-0.9v-7.7c0-0.4-0.1-0.7-0.4-0.9S23.3,70.6,22.9,70.6L22.9,70.6z"/>
	<path class="st0" d="M53.9,55.2h-7.8c-0.4,0-0.7,0.1-0.9,0.4c-0.2,0.2-0.4,0.6-0.4,0.9v23.2c0,0.4,0.1,0.7,0.4,0.9s0.6,0.4,0.9,0.4
		h7.7c0.4,0,0.7-0.1,0.9-0.4s0.4-0.6,0.4-0.9V56.5c0-0.4-0.1-0.7-0.4-0.9C54.6,55.3,54.3,55.2,53.9,55.2L53.9,55.2z"/>
	<path class="st0" d="M38.4,65.5h-7.7c-0.4,0-0.7,0.1-0.9,0.4c-0.2,0.2-0.4,0.6-0.4,0.9v12.9c0,0.4,0.1,0.7,0.4,0.9
		c0.2,0.2,0.6,0.4,0.9,0.4h7.7c0.4,0,0.7-0.1,0.9-0.4s0.4-0.6,0.4-0.9V66.8c0-0.4-0.1-0.7-0.4-0.9S38.7,65.5,38.4,65.5L38.4,65.5z"
		/>
	<path class="st0" d="M69.4,39.7h-7.7c-0.4,0-0.7,0.1-0.9,0.4s-0.4,0.6-0.4,0.9v38.7c0,0.4,0.1,0.7,0.4,0.9s0.6,0.4,0.9,0.4h7.7
		c0.4,0,0.7-0.1,0.9-0.4c0.2-0.2,0.4-0.6,0.4-0.9V41c0-0.4-0.1-0.7-0.4-0.9S69.7,39.7,69.4,39.7L69.4,39.7z"/>
	<path class="st0" d="M85.8,19.4c-0.2-0.2-0.6-0.4-0.9-0.4h-7.7c-0.4,0-0.7,0.1-0.9,0.4c-0.2,0.2-0.4,0.6-0.4,0.9v59.3
		c0,0.4,0.1,0.7,0.4,0.9s0.6,0.4,0.9,0.4h7.7c0.4,0,0.7-0.1,0.9-0.4c0.2-0.2,0.4-0.6,0.4-0.9V20.3C86.1,20,86,19.7,85.8,19.4
		L85.8,19.4z"/>
</g>
</svg>
