<?xml version="1.0" encoding="utf-8"?>
<!-- Generator: Adobe Illustrator 19.1.0, SVG Export Plug-In . SVG Version: 6.00 Build 0)  -->
<svg version="1.1" id="Layer_1" xmlns="http://www.w3.org/2000/svg" xmlns:xlink="http://www.w3.org/1999/xlink" x="0px" y="0px"
	 viewBox="0 0 100 100" style="enable-background:new 0 0 100 100;" xml:space="preserve">
<style type="text/css">
	.st0{fill:#FFFFFF;}
</style>
<g>
	<g>
		<path class="st0" d="M78.7,12.6h-55c-4.2,0-7.6,3.4-7.6,7.6v55c0,4.2,3.4,7.6,7.6,7.6h55c4.2,0,7.6-3.4,7.6-7.6v-55
			C86.4,16,82.9,12.6,78.7,12.6L78.7,12.6z M76.8,18.7c1.9,0,3.4,1.5,3.4,3.4s-1.5,3.4-3.4,3.4c-1.9,0-3.4-1.5-3.4-3.4
			C73,20.6,74.5,18.7,76.8,18.7L76.8,18.7z M65.4,18.7c1.9,0,3.4,1.5,3.4,3.4s-1.5,3.4-3.4,3.4c-1.9,0-3.4-1.5-3.4-3.4
			C61.9,20.6,63.4,18.7,65.4,18.7L65.4,18.7z M80.6,76.4H21.8V31.3h58.8V76.4z"/>
	</g>
	<g>
		<path class="st0" d="M66.5,63.8c0,2.7-2.3,5-5,5c-2.7,0-5-2.3-5-5c0-0.4,0-0.8,0-1.1l-11.5-5.7c-0.8,1.1-2.3,1.5-3.8,1.5
			c-2.7,0-5-2.3-5-5c0-2.7,2.3-5,5-5c1.5,0,2.7,0.8,3.8,1.5l11.5-5.7c0-0.4,0-0.8,0-1.1c0-2.7,2.3-5,5-5c2.7,0,5,2.3,5,5
			c0,2.7-2.3,5-5,5c-1.5,0-2.7-0.8-3.8-1.5l-11.5,5.7c0,0.4,0,0.8,0,1.1c0,0.4,0,0.8,0,1.1l11.5,5.7c0.8-1.1,2.3-1.5,3.8-1.5
			C64.2,58.8,66.5,61.1,66.5,63.8L66.5,63.8z"/>
	</g>
</g>
</svg>
