<?xml version="1.0" encoding="utf-8"?>
<!-- Generator: Adobe Illustrator 19.2.0, SVG Export Plug-In . SVG Version: 6.00 Build 0)  -->
<svg version="1.1" id="stethoscope_vector" xmlns="http://www.w3.org/2000/svg" xmlns:xlink="http://www.w3.org/1999/xlink" x="0px"
	 y="0px" viewBox="0 0 89.7 125" style="enable-background:new 0 0 89.7 125;" xml:space="preserve">
<style type="text/css">
	.st0{fill:none;stroke:#313540;stroke-width:2;stroke-miterlimit:10;}
	.st1{fill:#313540;}
</style>
<title>stethoscope</title>
<path class="st0" d="M45.6,9.7c0,0-13.3,0.8-13.8,6.6c-0.5,5.8,0,50.7,19.5,50.7s20-44.9,19.5-50.7S57,9.7,57,9.7"/>
<path class="st0" d="M51.3,67.1c0,0,15.1,49-13.5,51.8c-25.6,0-11.9-30.6-11.9-30.6"/>
<path class="st1" d="M37.3,10.4l8.9-4.3c1.3,0,1.3,7.7,0,7.7L37.3,10.4z"/>
<path class="st1" d="M63.8,10.4l-8.9-4.3c-1.3,0-1.3,7.7,0,7.7L63.8,10.4z"/>
<circle class="st0" cx="28.7" cy="78.9" r="10"/>
<circle class="st0" cx="28.7" cy="78.9" r="4.7"/>
</svg>
