<?xml version="1.0" encoding="utf-8"?>
<!-- Generator: Adobe Illustrator 19.1.0, SVG Export Plug-In . SVG Version: 6.00 Build 0)  -->
<svg version="1.1" id="Layer_1" xmlns="http://www.w3.org/2000/svg" xmlns:xlink="http://www.w3.org/1999/xlink" x="0px" y="0px"
	 viewBox="0 0 100 100" style="enable-background:new 0 0 100 100;" xml:space="preserve">
<style type="text/css">
	.st0{fill:#FFFFFF;}
</style>
<g>
	<path class="st0" d="M79.7,32.8c-3.1-5.3-7.2-9.4-12.5-12.5c-5.3-3.1-11-4.6-17.2-4.6s-12,1.5-17.3,4.6s-9.4,7.2-12.5,12.5
		s-4.6,11-4.6,17.3s1.5,12,4.6,17.2c3.1,5.3,7.2,9.4,12.5,12.5c5.3,3.1,11,4.6,17.2,4.6s12-1.5,17.2-4.6c5.3-3.1,9.4-7.2,12.5-12.5
		c3.1-5.3,4.6-11,4.6-17.2C84.3,43.8,82.8,38,79.7,32.8L79.7,32.8z M76.3,61.1c-1.5,3.5-3.6,6.6-6.1,9.1c-2.5,2.5-5.5,4.6-9.1,6.1
		c-3.5,1.5-7.2,2.3-11.1,2.3c-3.8,0-7.5-0.8-11.1-2.3c-3.6-1.5-6.6-3.6-9.1-6.1s-4.6-5.5-6.1-9.1c-1.5-3.5-2.3-7.2-2.3-11.1
		s0.8-7.6,2.3-11.1s3.6-6.6,6.1-9.1s5.5-4.6,9.1-6.1c3.5-1.5,7.2-2.3,11.1-2.3c3.8,0,7.5,0.8,11.1,2.3c3.5,1.5,6.6,3.6,9.1,6.1
		c2.5,2.5,4.6,5.5,6.1,9.1c1.5,3.5,2.3,7.2,2.3,11.1C78.6,53.9,77.9,57.6,76.3,61.1L76.3,61.1z"/>
	<path class="st0" d="M50.1,27.2c-6.4,0-11.7,2.2-16.2,6.7c-4.5,4.5-6.7,9.9-6.7,16.2s2.3,11.7,6.7,16.2s9.9,6.7,16.2,6.7
		s11.7-2.3,16.2-6.7s6.7-9.9,6.7-16.2s-2.3-11.7-6.7-16.2C61.7,29.3,56.4,27.2,50.1,27.2L50.1,27.2z M62.2,62.2
		c-3.4,3.4-7.4,5-12.1,5s-8.8-1.6-12.1-5c-3.4-3.4-5.1-7.4-5.1-12.1s1.6-8.8,5-12.1c3.4-3.4,7.4-5.1,12.2-5.1c4.7,0,8.8,1.6,12.1,5
		s5,7.4,5,12.1C67.2,54.8,65.5,58.8,62.2,62.2L62.2,62.2z"/>
	<path class="st0" d="M50.1,38.6c-3.2,0-5.9,1.1-8.1,3.4c-2.3,2.2-3.4,4.9-3.4,8.1s1.1,5.8,3.4,8.1c2.3,2.3,4.9,3.4,8.1,3.4
		c3.2,0,5.8-1.1,8.1-3.4c2.3-2.3,3.4-4.9,3.4-8.1s-1.1-5.8-3.4-8.1C55.9,39.7,53.2,38.6,50.1,38.6L50.1,38.6z"/>
</g>
</svg>
